<svg width="19" height="22" viewBox="0 0 19 22" fill="none" xmlns="http://www.w3.org/2000/svg">
<path d="M16.3619 10.5327L15.905 10.8866C14.3103 12.1217 12.5032 13.513 11.4386 14.2958C11.4158 14.3125 11.3966 14.335 11.3832 14.3617C11.3697 14.3885 11.3625 14.4184 11.3625 14.4491V17.1905C11.3625 17.7837 10.9102 18.3781 10.1839 18.3781C9.45889 18.3781 9.0067 17.7851 9.0067 17.1905C9.0067 17.1387 8.98631 17.0903 8.95209 17.0556L9.30795 16.7044L8.95208 17.0556C8.91807 17.0212 8.87335 17.003 8.82813 17.003C8.78291 17.003 8.73819 17.0212 8.70418 17.0556L8.34831 16.7044L8.70418 17.0556C8.66995 17.0903 8.64957 17.1387 8.64957 17.1905V19.2563V19.2573H8.14957C8.14996 19.3474 8.1325 19.4367 8.09823 19.5198C8.06396 19.603 8.01357 19.6783 7.95005 19.7414C7.88652 19.8045 7.81116 19.854 7.72841 19.8871L16.3619 10.5327ZM16.3619 10.5327L15.946 10.1314M16.3619 10.5327L15.946 10.1314M15.946 10.1314C12.1955 6.51343 6.94801 4.37516 1.36103 4.33157L0.85713 4.32764M15.946 10.1314L0.85713 4.32764M0.85713 4.32764V4.83156M0.85713 4.32764V4.83156M0.85713 4.83156L0.857128 19.9365L0.857132 19.938M0.85713 4.83156L0.857132 19.938M0.857132 19.938C0.857775 20.1564 0.918186 20.3708 1.03222 20.5573C1.14629 20.7439 1.30978 20.8957 1.50521 20.9949C1.7007 21.0942 1.92001 21.1368 2.13859 21.1175C2.35715 21.0982 2.56554 21.0178 2.74065 20.8862L2.7415 20.8855M0.857132 19.938L2.7415 20.8855M2.7415 20.8855C2.96142 20.7194 3.18956 20.5471 3.42146 20.372C4.31371 19.6983 5.26165 18.9825 6.01196 18.4123C6.03852 18.3921 6.06943 18.3803 6.10114 18.3774C6.13283 18.3745 6.16496 18.3806 6.19409 18.3953C6.22328 18.4101 6.24875 18.4333 6.26695 18.4631L6.69381 18.2028L2.7415 20.8855ZM10.0081 19.2461C10.0665 19.2509 10.1251 19.2533 10.1839 19.2531C11.4664 19.2531 12.2196 18.1765 12.2196 17.1905L10.0081 19.2461ZM10.0081 19.2461V19.1431H9.50805M10.0081 19.2461L9.50805 19.1431M9.50805 19.1431L9.46965 19.2573L9.34861 19.617C9.38809 19.6303 9.42784 19.6426 9.46783 19.654M9.50805 19.1431L9.46783 19.654M9.46783 19.654C9.29598 20.5055 8.58102 21.3075 7.46829 21.3075C6.66242 21.3075 6.07288 20.8836 5.74274 20.3321C5.77363 20.3087 5.80441 20.2854 5.83507 20.2621L5.53302 19.8637L5.05576 20.0127C5.07333 20.069 5.09292 20.125 5.11451 20.1806C4.49176 20.6519 3.84219 21.1419 3.25033 21.588L9.46783 19.654ZM2.72379 0.504146L2.72393 0.504155C8.66002 0.873382 13.834 2.89386 17.8813 6.80935L17.8815 6.80953C18.8152 7.71191 18.6538 9.21563 17.6465 9.99895L17.6454 9.99982C15.7492 11.483 13.8401 12.9494 11.9185 14.3988L11.7196 14.5488V14.798V17.1905C11.7196 17.9576 11.1363 18.7531 10.1839 18.7531L10.1829 18.7531C10.0078 18.7535 9.83382 18.7252 9.6675 18.6692L9.00805 18.4474V19.1431V19.2573C9.00805 20.0148 8.42694 20.8075 7.46829 20.8075C6.70356 20.8075 6.19528 20.3069 6.01028 19.7146L5.79811 19.0353L5.23097 19.4652C4.48784 20.0285 3.67538 20.6415 2.94937 21.1887L2.94924 21.1888C1.94504 21.9462 0.5 21.229 0.5 19.9365V2.68922C0.5 1.44249 1.49988 0.427665 2.72379 0.504146ZM5.12021 15.1701L5.47607 15.5213L5.12021 15.1701C5.02232 15.2692 4.89095 15.3237 4.75538 15.3237C4.61982 15.3237 4.48845 15.2692 4.39056 15.1701C4.29245 15.0706 4.23618 14.9344 4.23618 14.7911C4.23618 14.6477 4.29245 14.5115 4.39056 14.4121C4.48845 14.3129 4.61982 14.2584 4.75538 14.2584C4.89095 14.2584 5.02232 14.3129 5.12021 14.4121C5.21832 14.5115 5.27459 14.6477 5.27459 14.7911C5.27459 14.9344 5.21832 15.0706 5.12021 15.1701ZM17.4325 9.69939L17.4326 9.69927C18.2844 9.0367 18.3876 7.80793 17.6389 7.08347L17.6388 7.08337C13.6628 3.23815 8.57293 1.24347 2.70336 0.877021C1.68794 0.813586 0.85713 1.65323 0.85713 2.68922V3.45651V3.95266L1.35327 3.95649C7.10096 4.0009 12.5053 6.22733 16.3379 10.0006L16.6498 10.3077L16.9955 10.039L17.4325 9.69939ZM5.11142 8.97547C5.01442 9.07375 4.88427 9.12775 4.74996 9.12775C4.61565 9.12775 4.48549 9.07375 4.38849 8.97547C4.29128 8.87697 4.2355 8.74199 4.2355 8.59989C4.2355 8.4578 4.29127 8.32282 4.38849 8.22432C4.48549 8.12604 4.61565 8.07204 4.74996 8.07204C4.88427 8.07204 5.01442 8.12604 5.11142 8.22432C5.20864 8.32282 5.26441 8.4578 5.26441 8.59989C5.26441 8.74199 5.20864 8.87697 5.11142 8.97547ZM9.30255 11.3507C9.30255 11.4928 9.24678 11.6278 9.14956 11.7263C9.05256 11.8245 8.92241 11.8785 8.7881 11.8785C8.65379 11.8785 8.52363 11.8245 8.42663 11.7263C8.32942 11.6278 8.27364 11.4928 8.27364 11.3507C8.27364 11.2086 8.32942 11.0736 8.42663 10.9751C8.52363 10.8768 8.65379 10.8228 8.7881 10.8228C8.92241 10.8228 9.05256 10.8768 9.14956 10.9751C9.24678 11.0736 9.30255 11.2086 9.30255 11.3507ZM18.229 6.45C19.4056 7.58717 19.1735 9.44487 17.9535 10.3937L2.75497 0.00511896C8.79013 0.380509 14.0829 2.43897 18.229 6.45Z" fill="white" stroke="#FAC564"/>
</svg>
