<svg width="0" height="0" class="hidden">

  <symbol xmlns="http://www.w3.org/2000/svg" viewBox="0 0 24 25" id="auth">

    <path d="M23.0584 20.402C22.4564 18.9987 21.5827 17.7239 20.4861 16.6489C19.3928 15.5707 18.0977 14.7111 16.6723 14.1175C16.6595 14.1112 16.6468 14.108 16.634 14.1018C18.6223 12.6884 19.9148 10.3863 19.9148 7.78894C19.9148 3.48618 16.3723 0 12 0C7.62769 0 4.08516 3.48618 4.08516 7.78894C4.08516 10.3863 5.3777 12.6884 7.36599 14.1049C7.35322 14.1112 7.34046 14.1143 7.32769 14.1206C5.89791 14.7142 4.61494 15.5653 3.51389 16.652C2.41829 17.7279 1.54476 19.0024 0.941563 20.4052C0.348978 21.7784 0.0293836 23.2508 7.98059e-05 24.7425C-0.000772013 24.776 0.0052025 24.8093 0.0176515 24.8405C0.0301005 24.8718 0.0487719 24.9002 0.0725657 24.9242C0.0963595 24.9482 0.124794 24.9673 0.156194 24.9803C0.187594 24.9933 0.221325 25 0.255397 25H2.17028C2.3107 25 2.4224 24.8901 2.4256 24.755C2.48942 22.3304 3.47878 20.0597 5.2277 18.3386C7.03727 16.5578 9.44044 15.5779 12 15.5779C14.5596 15.5779 16.9627 16.5578 18.7723 18.3386C20.5212 20.0597 21.5106 22.3304 21.5744 24.755C21.5776 24.8932 21.6893 25 21.8297 25H23.7446C23.7787 25 23.8124 24.9933 23.8438 24.9803C23.8752 24.9673 23.9036 24.9482 23.9274 24.9242C23.9512 24.9002 23.9699 24.8718 23.9823 24.8405C23.9948 24.8093 24.0008 24.776 23.9999 24.7425C23.968 23.2412 23.6521 21.7808 23.0584 20.402ZM12 13.191C10.5351 13.191 9.1564 12.6288 8.11917 11.608C7.08195 10.5873 6.51067 9.23053 6.51067 7.78894C6.51067 6.34736 7.08195 4.99058 8.11917 3.96985C9.1564 2.94912 10.5351 2.38693 12 2.38693C13.4649 2.38693 14.8436 2.94912 15.8808 3.96985C16.9181 4.99058 17.4893 6.34736 17.4893 7.78894C17.4893 9.23053 16.9181 10.5873 15.8808 11.608C14.8436 12.6288 13.4649 13.191 12 13.191Z"></path>
  </symbol>
  <symbol xmlns="http://www.w3.org/2000/svg" viewBox="0 0 30 27" id="basket">
    <path d="M1 10.375H2.55556M2.55556 10.375L4.11111 26H25.8889L27.4444 10.375M2.55556 10.375H8.77778M29 10.375H27.4444M27.4444 10.375H21.2222M21.2222 10.375H8.77778M21.2222 10.375V7.25C21.2222 5.16719 19.9778 1 15 1C10.0222 1 8.77778 5.16719 8.77778 7.25V10.375M15 16.625V19.75M19.6667 16.625V19.75M10.3333 16.625V19.75" stroke-width="2" stroke-linecap="round" stroke-linejoin="round"></path>

  </symbol>

  <symbol xmlns="http://www.w3.org/2000/svg" viewBox="0 0 19 22" id="pizza">

    <path d="M4.74996 9.62775C5.01901 9.62775 5.27704 9.51946 5.46728 9.3267C5.65753 9.13394 5.76441 8.8725 5.76441 8.59989C5.76441 8.32729 5.65753 8.06585 5.46728 7.87309C5.27704 7.68033 5.01901 7.57204 4.74996 7.57204C4.48091 7.57204 4.22288 7.68033 4.03263 7.87309C3.84238 8.06585 3.7355 8.32729 3.7355 8.59989C3.7355 8.8725 3.84238 9.13394 4.03263 9.3267C4.22288 9.51946 4.48091 9.62775 4.74996 9.62775ZM9.80255 11.3507C9.80255 11.6233 9.69567 11.8847 9.50543 12.0775C9.31518 12.2703 9.05715 12.3785 8.7881 12.3785C8.51905 12.3785 8.26102 12.2703 8.07077 12.0775C7.88052 11.8847 7.77364 11.6233 7.77364 11.3507C7.77364 11.0781 7.88052 10.8166 8.07077 10.6239C8.26102 10.4311 8.51905 10.3228 8.7881 10.3228C9.05715 10.3228 9.31518 10.4311 9.50543 10.6239C9.69567 10.8166 9.80255 11.0781 9.80255 11.3507ZM4.75538 15.8237C5.02569 15.8237 5.28493 15.7149 5.47607 15.5213C5.66721 15.3276 5.77459 15.065 5.77459 14.7911C5.77459 14.5172 5.66721 14.2545 5.47607 14.0609C5.28493 13.8672 5.02569 13.7584 4.75538 13.7584C4.48507 13.7584 4.22584 13.8672 4.0347 14.0609C3.84356 14.2545 3.73618 14.5172 3.73618 14.7911C3.73618 15.065 3.84356 15.3276 4.0347 15.5213C4.22584 15.7149 4.48507 15.8237 4.75538 15.8237ZM0 2.68922C0 1.18354 1.21463 -0.0911348 2.75497 0.00511896C8.79013 0.380509 14.0829 2.43897 18.229 6.45C19.4056 7.58717 19.1735 9.44487 17.9535 10.3937C16.0549 11.8787 14.1435 13.3468 12.2196 14.798V17.1905C12.2196 18.1765 11.4664 19.2531 10.1839 19.2531C9.95424 19.2536 9.72601 19.2165 9.50805 19.1431V19.2573C9.50805 20.2377 8.75349 21.3075 7.46829 21.3075C6.44501 21.3075 5.77052 20.6241 5.53302 19.8637C4.78931 20.4274 3.97639 21.0407 3.25033 21.588C1.90677 22.6014 0 21.6292 0 19.9365V2.68922ZM9.5067 17.1905C9.5067 17.5467 9.77134 17.8781 10.1839 17.8781C10.5978 17.8781 10.8625 17.5453 10.8625 17.1905V14.4487C10.8626 14.3403 10.8879 14.2335 10.9365 14.137C10.9851 14.0404 11.0555 13.9569 11.142 13.8932C12.2006 13.1149 14.0029 11.7275 15.5989 10.4913C11.9441 6.96564 6.82094 4.87419 1.35713 4.83156V19.9365C1.3575 20.0637 1.39271 20.1884 1.45882 20.2965C1.52494 20.4047 1.61937 20.4921 1.73162 20.5491C1.84387 20.6061 1.96952 20.6305 2.09461 20.6194C2.21969 20.6084 2.3393 20.5624 2.44012 20.4865C3.50682 19.6808 4.76488 18.732 5.70945 18.0142C5.81026 17.9376 5.93014 17.8909 6.05565 17.8795C6.18116 17.868 6.30734 17.8922 6.42005 17.9493C6.53276 18.0064 6.62756 18.0942 6.69381 18.2028C6.76006 18.3114 6.79515 18.4365 6.79515 18.5642V19.2573C6.79515 19.5955 7.05301 19.9338 7.46829 19.9338C7.55721 19.936 7.64566 19.9201 7.72841 19.8871C7.81116 19.854 7.88652 19.8045 7.95005 19.7414C8.01357 19.6783 8.06396 19.603 8.09823 19.5198C8.1325 19.4367 8.14996 19.3474 8.14957 19.2573V17.1905C8.14957 17.0082 8.22106 16.8333 8.34831 16.7044C8.47557 16.5755 8.64817 16.503 8.82813 16.503C9.0081 16.503 9.18069 16.5755 9.30795 16.7044C9.43521 16.8333 9.5067 17.0082 9.5067 17.1905ZM17.1256 9.30461C17.7567 8.81372 17.8042 7.93918 17.2912 7.44279C13.4139 3.69301 8.44271 1.73631 2.67219 1.37605C1.96784 1.33205 1.35713 1.91782 1.35713 2.68922V3.45651C7.22943 3.50188 12.7597 5.77622 16.6886 9.64425L17.1256 9.30461Z"></path>

  </symbol>

  <symbol xmlns="http://www.w3.org/2000/svg" viewBox="0 0 19 22" id="breakfast">

    <path d="M4.74996 9.62775C5.01901 9.62775 5.27704 9.51946 5.46728 9.3267C5.65753 9.13394 5.76441 8.8725 5.76441 8.59989C5.76441 8.32729 5.65753 8.06585 5.46728 7.87309C5.27704 7.68033 5.01901 7.57204 4.74996 7.57204C4.48091 7.57204 4.22288 7.68033 4.03263 7.87309C3.84238 8.06585 3.7355 8.32729 3.7355 8.59989C3.7355 8.8725 3.84238 9.13394 4.03263 9.3267C4.22288 9.51946 4.48091 9.62775 4.74996 9.62775ZM9.80255 11.3507C9.80255 11.6233 9.69567 11.8847 9.50543 12.0775C9.31518 12.2703 9.05715 12.3785 8.7881 12.3785C8.51905 12.3785 8.26102 12.2703 8.07077 12.0775C7.88052 11.8847 7.77364 11.6233 7.77364 11.3507C7.77364 11.0781 7.88052 10.8166 8.07077 10.6239C8.26102 10.4311 8.51905 10.3228 8.7881 10.3228C9.05715 10.3228 9.31518 10.4311 9.50543 10.6239C9.69567 10.8166 9.80255 11.0781 9.80255 11.3507ZM4.75538 15.8237C5.02569 15.8237 5.28493 15.7149 5.47607 15.5213C5.66721 15.3276 5.77459 15.065 5.77459 14.7911C5.77459 14.5172 5.66721 14.2545 5.47607 14.0609C5.28493 13.8672 5.02569 13.7584 4.75538 13.7584C4.48507 13.7584 4.22584 13.8672 4.0347 14.0609C3.84356 14.2545 3.73618 14.5172 3.73618 14.7911C3.73618 15.065 3.84356 15.3276 4.0347 15.5213C4.22584 15.7149 4.48507 15.8237 4.75538 15.8237ZM0 2.68922C0 1.18354 1.21463 -0.0911348 2.75497 0.00511896C8.79013 0.380509 14.0829 2.43897 18.229 6.45C19.4056 7.58717 19.1735 9.44487 17.9535 10.3937C16.0549 11.8787 14.1435 13.3468 12.2196 14.798V17.1905C12.2196 18.1765 11.4664 19.2531 10.1839 19.2531C9.95424 19.2536 9.72601 19.2165 9.50805 19.1431V19.2573C9.50805 20.2377 8.75349 21.3075 7.46829 21.3075C6.44501 21.3075 5.77052 20.6241 5.53302 19.8637C4.78931 20.4274 3.97639 21.0407 3.25033 21.588C1.90677 22.6014 0 21.6292 0 19.9365V2.68922ZM9.5067 17.1905C9.5067 17.5467 9.77134 17.8781 10.1839 17.8781C10.5978 17.8781 10.8625 17.5453 10.8625 17.1905V14.4487C10.8626 14.3403 10.8879 14.2335 10.9365 14.137C10.9851 14.0404 11.0555 13.9569 11.142 13.8932C12.2006 13.1149 14.0029 11.7275 15.5989 10.4913C11.9441 6.96564 6.82094 4.87419 1.35713 4.83156V19.9365C1.3575 20.0637 1.39271 20.1884 1.45882 20.2965C1.52494 20.4047 1.61937 20.4921 1.73162 20.5491C1.84387 20.6061 1.96952 20.6305 2.09461 20.6194C2.21969 20.6084 2.3393 20.5624 2.44012 20.4865C3.50682 19.6808 4.76488 18.732 5.70945 18.0142C5.81026 17.9376 5.93014 17.8909 6.05565 17.8795C6.18116 17.868 6.30734 17.8922 6.42005 17.9493C6.53276 18.0064 6.62756 18.0942 6.69381 18.2028C6.76006 18.3114 6.79515 18.4365 6.79515 18.5642V19.2573C6.79515 19.5955 7.05301 19.9338 7.46829 19.9338C7.55721 19.936 7.64566 19.9201 7.72841 19.8871C7.81116 19.854 7.88652 19.8045 7.95005 19.7414C8.01357 19.6783 8.06396 19.603 8.09823 19.5198C8.1325 19.4367 8.14996 19.3474 8.14957 19.2573V17.1905C8.14957 17.0082 8.22106 16.8333 8.34831 16.7044C8.47557 16.5755 8.64817 16.503 8.82813 16.503C9.0081 16.503 9.18069 16.5755 9.30795 16.7044C9.43521 16.8333 9.5067 17.0082 9.5067 17.1905ZM17.1256 9.30461C17.7567 8.81372 17.8042 7.93918 17.2912 7.44279C13.4139 3.69301 8.44271 1.73631 2.67219 1.37605C1.96784 1.33205 1.35713 1.91782 1.35713 2.68922V3.45651C7.22943 3.50188 12.7597 5.77622 16.6886 9.64425L17.1256 9.30461Z"></path>

  </symbol>
</svg>
