<svg width="33" height="33" viewBox="0 0 33 33" fill="none" xmlns="http://www.w3.org/2000/svg">
<path fill-rule="evenodd" clip-rule="evenodd" d="M30.9375 16.5C30.9375 12.6709 29.4164 8.9987 26.7089 6.29115C24.0013 3.58359 20.3291 2.0625 16.5 2.0625C12.6709 2.0625 8.9987 3.58359 6.29115 6.29115C3.58359 8.9987 2.0625 12.6709 2.0625 16.5C2.0625 20.3291 3.58359 24.0013 6.29115 26.7089C8.9987 29.4164 12.6709 30.9375 16.5 30.9375C20.3291 30.9375 24.0013 29.4164 26.7089 26.7089C29.4164 24.0013 30.9375 20.3291 30.9375 16.5ZM0 16.5C0 12.1239 1.73839 7.92709 4.83274 4.83274C7.92709 1.73839 12.1239 0 16.5 0C20.8761 0 25.0729 1.73839 28.1673 4.83274C31.2616 7.92709 33 12.1239 33 16.5C33 20.8761 31.2616 25.0729 28.1673 28.1673C25.0729 31.2616 20.8761 33 16.5 33C12.1239 33 7.92709 31.2616 4.83274 28.1673C1.73839 25.0729 0 20.8761 0 16.5ZM23.7188 17.5312C23.9923 17.5312 24.2546 17.4226 24.448 17.2292C24.6414 17.0358 24.75 16.7735 24.75 16.5C24.75 16.2265 24.6414 15.9642 24.448 15.7708C24.2546 15.5774 23.9923 15.4688 23.7188 15.4688L11.7707 15.4687L16.1989 11.0426C16.2948 10.9467 16.3708 10.8329 16.4227 10.7076C16.4746 10.5824 16.5013 10.4481 16.5013 10.3125C16.5013 10.1769 16.4746 10.0426 16.4227 9.91736C16.3708 9.79208 16.2948 9.67826 16.1989 9.58237C16.103 9.48649 15.9892 9.41044 15.8639 9.35855C15.7386 9.30665 15.6043 9.27995 15.4688 9.27995C15.3332 9.27995 15.1989 9.30665 15.0736 9.35855C14.9483 9.41044 14.8345 9.48649 14.7386 9.58237L8.55112 15.7699C8.45509 15.8657 8.37889 15.9795 8.32691 16.1048C8.27492 16.23 8.24816 16.3644 8.24816 16.5C8.24816 16.6356 8.27492 16.77 8.32691 16.8952C8.37889 17.0205 8.45509 17.1343 8.55112 17.2301L14.7386 23.4176C14.8345 23.5135 14.9483 23.5896 15.0736 23.6415C15.1989 23.6933 15.3332 23.7201 15.4688 23.7201C15.6043 23.7201 15.7386 23.6933 15.8639 23.6415C15.9892 23.5896 16.103 23.5135 16.1989 23.4176C16.2948 23.3217 16.3708 23.2079 16.4227 23.0826C16.4746 22.9574 16.5013 22.8231 16.5013 22.6875C16.5013 22.5519 16.4746 22.4176 16.4227 22.2924C16.3708 22.1671 16.2948 22.0533 16.1989 21.9574L11.7707 17.5312H23.7188Z" fill="#F8AB06"/>
</svg>
