<svg width="23" height="23" viewBox="0 0 23 23" fill="none" xmlns="http://www.w3.org/2000/svg">
<path d="M20.779 2.31197C19.544 1.07697 18.135 0.483602 17.632 0.986637L14.2305 4.38812L18.7028 8.86045L22.1043 5.45897C22.6073 4.95593 22.0139 3.547 20.779 2.31197Z" fill="#FF6E83"/>
<path d="M18.6225 4.46832C17.2135 3.05925 15.606 2.38228 15.0321 2.9562L11.5488 6.43944L16.6514 11.5421L20.1347 8.05883C20.7086 7.48491 20.0316 5.87738 18.6225 4.46832Z" fill="#BFBCAF"/>
<path d="M5.19026 20.2139L2.12232 21.5482C1.89905 21.6453 1.63932 21.543 1.54224 21.3198C1.51824 21.2643 1.50586 21.2044 1.50586 21.144C1.50586 21.0835 1.51824 21.0236 1.54224 20.9681L2.87664 17.9002C3.26396 17.0097 4.29981 16.6018 5.1903 16.9891C6.08079 17.3764 6.48868 18.4123 6.10136 19.3028C5.91709 19.7264 5.58251 20.0423 5.19026 20.2139Z" fill="#2B2622"/>
<path d="M18.1227 10.0607C18.126 10.056 18.1293 10.0514 18.1324 10.0466C18.5749 9.41241 17.8977 7.88587 16.5517 6.53979C15.2055 5.19366 13.679 4.51655 13.0448 4.95912C13.0401 4.96218 13.0355 4.96546 13.0309 4.96869C13.0252 4.97291 13.0192 4.97691 13.0137 4.98131C12.998 4.99335 12.9828 5.00607 12.9684 5.0204L12.9612 5.02763H12.9612V5.02767L4.87346 13.1154C4.87346 13.1154 2.58343 18.7823 3.44629 19.6452C4.30915 20.508 9.97609 18.218 9.97609 18.218L18.071 10.1231C18.0853 10.1087 18.0981 10.0935 18.1101 10.0778C18.1145 10.0723 18.1185 10.0664 18.1227 10.0607Z" fill="#FFD469"/>
<path d="M4.87374 13.1152L4.69396 14.2356C4.6675 14.4004 4.81022 14.5426 4.9749 14.5158L5.77779 14.3846C5.93637 14.3588 6.07639 14.4902 6.06062 14.65L5.97123 15.5563C5.95555 15.7154 6.09418 15.8465 6.25212 15.822L7.06355 15.6961C7.22944 15.6704 7.3714 15.8156 7.34184 15.9809L7.20303 16.7572C7.17446 16.9171 7.30675 17.06 7.46834 17.0437L8.3816 16.9516C8.53568 16.936 8.66524 17.0658 8.64947 17.2198L8.55531 18.1411C8.5391 18.2997 8.67642 18.4311 8.8341 18.408L9.99627 18.2378L3.44666 20.9784C3.96915 20.4559 2.61628 19.103 2.09375 19.6255L4.87374 13.1152Z" fill="#E5AA6E"/>
<path d="M6.55304 13.4109C6.49272 13.4108 6.43375 13.393 6.3836 13.3594C6.33344 13.3259 6.29435 13.2783 6.27126 13.2226C6.24818 13.1668 6.24214 13.1055 6.25391 13.0463C6.26567 12.9872 6.29472 12.9328 6.33737 12.8902L13.0916 6.13589C13.1489 6.07883 13.2264 6.04681 13.3072 6.04688C13.3881 6.04694 13.4656 6.07907 13.5227 6.13622C13.5798 6.19338 13.612 6.27087 13.612 6.35169C13.6121 6.43251 13.5801 6.51005 13.523 6.56727L6.76871 13.3215C6.74043 13.3499 6.70681 13.3724 6.6698 13.3877C6.63279 13.403 6.59311 13.4109 6.55304 13.4109ZM8.49416 15.047L15.2484 8.29268C15.2768 8.26437 15.2993 8.23074 15.3147 8.19372C15.3301 8.1567 15.338 8.117 15.3381 8.07691C15.3381 8.03682 15.3302 7.99711 15.3149 7.96006C15.2996 7.92302 15.2771 7.88936 15.2487 7.861C15.2204 7.83265 15.1867 7.81017 15.1497 7.79484C15.1126 7.77951 15.0729 7.77163 15.0328 7.77165C14.9927 7.77168 14.953 7.77961 14.916 7.79499C14.879 7.81037 14.8454 7.8329 14.8171 7.86129L8.06278 14.6156C8.00572 14.6728 7.9737 14.7504 7.97376 14.8312C7.97383 14.912 8.00596 14.9895 8.06311 15.0467C8.12026 15.1038 8.19776 15.1359 8.27858 15.136C8.3594 15.136 8.43693 15.104 8.49416 15.047ZM10.2196 16.7724L16.9738 10.0181C17.0022 9.98982 17.0248 9.95619 17.0402 9.91917C17.0555 9.88215 17.0635 9.84245 17.0635 9.80236C17.0635 9.76227 17.0557 9.72256 17.0403 9.68551C17.025 9.64847 17.0025 9.6148 16.9742 9.58645C16.9458 9.5581 16.9122 9.53562 16.8751 9.52029C16.8381 9.50495 16.7984 9.49708 16.7583 9.4971C16.7182 9.49713 16.6785 9.50506 16.6415 9.52044C16.6044 9.53582 16.5708 9.55835 16.5425 9.58674L9.78823 16.341C9.73116 16.3982 9.69915 16.4758 9.69921 16.5566C9.69928 16.6374 9.73141 16.7149 9.78856 16.7721C9.84571 16.8292 9.92321 16.8613 10.004 16.8614C10.0848 16.8614 10.1624 16.8294 10.2196 16.7724Z" fill="#FFB636"/>
</svg>
